<?xml version="1.0" encoding="UTF-8"?>
<svg xmlns="http://www.w3.org/2000/svg" width="201" height="68" viewBox="0 0 201 68" fill="none">
  <g clip-path="url(#clip0_53_143)">
    <path d="M76.2263 14.9682L78.3713 14.9682L78.3713 13.8721L72.8865 13.8721L72.8865 14.9682L75.0138 14.9682L75.0138 20.6072L76.2263 20.6072L76.2263 14.9682ZM85.6039 17.763L85.6039 20.5826L86.781 20.5826L86.781 13.8721L85.6039 13.8721L85.6039 16.6669L82.3599 16.6669L82.3599 13.8721L81.1899 13.8721L81.1899 20.5966L82.3705 20.5966L82.3705 17.7771L85.6039 17.763ZM95.0773 13.8862L90.0747 13.8862L90.0747 20.5966L95.1304 20.5966L95.1304 19.5393L91.2553 19.5393L91.2553 17.7419L94.6625 17.7419L94.6625 16.6846L91.273 16.6846L91.273 14.9576L95.0985 14.9576L95.0985 13.9003L95.0773 13.8862Z" fill="#B3B3B3"></path>
    <path fill-rule="evenodd" clip-rule="evenodd" d="M100.286 16.7234L200.124 16.7234L200.124 17.7455L100.286 17.7455L100.286 16.7234Z" fill="#B3B3B3"></path>
    <path fill-rule="evenodd" clip-rule="evenodd" d="M73.0674 51.4563L201 51.4563L201 52.4749L73.0674 52.4749L73.0674 51.4563Z" fill="#B3B3B3"></path>
    <path d="M141.125 27.6138L129.053 27.6138L129.053 43.8261L141.235 43.8261L141.235 41.2356L131.889 41.2356L131.889 36.9217L140.044 36.9217L140.044 34.3489L131.889 34.3489L131.889 30.1831L141.107 30.1831L141.107 27.6138L141.125 27.6138ZM90.8193 40.6541L88.6034 38.4161C87.8389 39.1413 86.9819 39.7634 86.0542 40.2664C85.1004 40.7454 84.0415 40.9804 82.9733 40.9501C82.0799 40.9595 81.1953 40.7742 80.3816 40.4074C79.6005 40.0542 78.8997 39.547 78.3217 38.9166C77.734 38.2721 77.2777 37.5205 76.978 36.7032C76.6547 35.8336 76.4925 34.913 76.4994 33.9859C76.4915 33.0645 76.6537 32.1494 76.978 31.2862C77.2788 30.4769 77.7351 29.7335 78.3217 29.0975C78.9031 28.4745 79.6033 27.9726 80.3816 27.6208C81.1925 27.2571 82.073 27.072 82.9626 27.0781C84.0007 27.0604 85.0279 27.2901 85.9585 27.7477C86.8647 28.2167 87.7001 28.8099 88.4403 29.5099L90.6526 26.9759C90.1976 26.5245 89.7093 26.1074 89.1919 25.7282C88.6567 25.3506 88.0841 25.0282 87.483 24.766C86.8268 24.4918 86.1435 24.2863 85.4444 24.1528C84.6372 23.9983 83.8166 23.9239 82.9945 23.9308C81.5904 23.9129 80.1977 24.1829 78.9031 24.7238C77.7063 25.2285 76.6227 25.9653 75.7157 26.8912C74.8086 27.8171 74.0964 28.9134 73.6205 30.1161C73.1222 31.3654 72.8707 32.6984 72.8795 34.0423C72.8685 35.3968 73.1251 36.7404 73.6347 37.9967C74.1098 39.1847 74.8177 40.2669 75.7173 41.1806C76.6169 42.0942 77.6902 42.8209 78.8748 43.3186C80.1333 43.8456 81.4871 44.1107 82.8527 44.0974C83.6954 44.1051 84.5366 44.026 85.3629 43.8613C86.0842 43.712 86.7843 43.4752 87.4476 43.1564C88.0738 42.8549 88.6677 42.4912 89.2203 42.0709C89.7889 41.6388 90.3191 41.1589 90.8051 40.6365L90.8193 40.6541ZM102.253 27.4904L99.5977 27.4904L92.4253 43.812L95.3716 43.812L97.0486 39.8999L104.756 39.8999L106.408 43.812L109.436 43.812L102.253 27.4904ZM103.696 37.3764L98.0838 37.3764L100.881 30.895L103.696 37.3764ZM126.057 43.812L121.654 37.676C122.207 37.532 122.737 37.31 123.228 37.0169C123.692 36.7344 124.105 36.377 124.451 35.9596C124.797 35.5383 125.068 35.0616 125.252 34.5498C125.68 33.2567 125.635 31.8551 125.125 30.5919C124.856 29.9671 124.446 29.4123 123.926 28.9707C123.364 28.5086 122.714 28.1624 122.015 27.9521C121.196 27.7051 120.343 27.5862 119.487 27.5997L112.223 27.5997L112.223 43.812L115.059 43.812L115.059 38.1729L118.658 38.1729L122.675 43.812L126.057 43.812ZM122.632 32.8863C122.649 33.2682 122.575 33.6486 122.417 33.9969C122.259 34.3453 122.02 34.6518 121.721 34.8917C121.017 35.4193 120.148 35.6826 119.268 35.6353L115.063 35.6353L115.063 30.1831L119.243 30.1831C120.321 30.1831 121.154 30.418 121.742 30.888C122.044 31.131 122.282 31.4427 122.437 31.7966C122.592 32.1506 122.659 32.5364 122.632 32.9215L122.632 32.8863Z" fill="#002B60"></path>
    <path d="M200.883 27.6137L188.829 27.6137L188.829 43.826L201.011 43.826L201.011 41.2356L191.661 41.2356L191.661 36.9217L199.816 36.9217L199.816 34.3489L191.661 34.3489L191.661 30.183L200.879 30.183L200.879 27.6137L200.883 27.6137ZM148.989 29.3266C148.989 29.0031 149.066 28.6841 149.212 28.3953C149.359 28.1064 149.571 27.8556 149.833 27.6631C150.515 27.167 151.35 26.9238 152.194 26.9758C153.108 26.9782 154.014 27.1528 154.864 27.4904C155.813 27.8744 156.71 28.3765 157.533 28.9847L159.387 26.3872C158.413 25.6073 157.317 24.9895 156.143 24.5581C154.891 24.1217 153.571 23.9081 152.243 23.9272C151.331 23.9192 150.422 24.056 149.553 24.3325C148.773 24.5749 148.05 24.9691 147.425 25.492C146.842 25.9903 146.371 26.6052 146.043 27.2965C145.701 28.027 145.529 28.8243 145.539 29.6297C145.516 30.4248 145.665 31.2155 145.975 31.9488C146.266 32.5795 146.701 33.1344 147.244 33.57C147.866 34.0507 148.561 34.4281 149.304 34.6872C150.222 35.0129 151.159 35.2836 152.109 35.4978C152.866 35.6742 153.614 35.8883 154.349 36.1393C154.828 36.2984 155.283 36.5188 155.704 36.7948C155.994 36.9853 156.227 37.2509 156.377 37.5631C156.502 37.8649 156.563 38.1886 156.558 38.5147C156.568 38.8715 156.488 39.2251 156.323 39.5424C156.159 39.8598 155.917 40.1307 155.619 40.3298C154.862 40.8145 153.972 41.05 153.073 41.003C151.933 41.0231 150.803 40.7983 149.758 40.3439C148.706 39.8572 147.731 39.2222 146.862 38.4583L144.78 40.9254C145.902 41.9498 147.21 42.7513 148.634 43.2868C150.033 43.802 151.514 44.0623 153.006 44.0551C153.965 44.0647 154.921 43.9329 155.842 43.6639C156.648 43.4322 157.399 43.0428 158.051 42.5185C158.662 42.0179 159.152 41.3882 159.487 40.6752C159.842 39.8941 160.019 39.0442 160.004 38.187C160.02 37.4534 159.881 36.7246 159.597 36.0476C159.316 35.4367 158.906 34.8933 158.395 34.4546C157.804 33.9594 157.132 33.5674 156.409 33.2951C155.515 32.9471 154.6 32.6564 153.669 32.4246C152.726 32.199 151.953 31.984 151.339 31.7796C150.831 31.6227 150.347 31.3974 149.9 31.1099C149.6 30.9136 149.356 30.6442 149.191 30.3275C149.053 30.0109 148.986 29.668 148.996 29.3231L148.989 29.3266ZM163.387 27.6137L163.387 43.826L166.223 43.826L166.223 27.6137L163.387 27.6137ZM185.347 35.6952C185.355 34.5983 185.141 33.511 184.716 32.4986C184.311 31.5288 183.708 30.6537 182.943 29.9293C182.15 29.1867 181.216 28.6081 180.196 28.227C179.076 27.8081 177.888 27.6001 176.693 27.6137L170.605 27.6137L170.605 43.826L176.686 43.826C177.882 43.8397 179.071 43.628 180.188 43.2022C181.211 42.8134 182.147 42.2291 182.943 41.4823C183.71 40.7545 184.314 39.8743 184.716 38.8989C185.139 37.8835 185.352 36.7941 185.343 35.6952L185.347 35.6952ZM182.344 35.741C182.353 36.4992 182.215 37.2521 181.936 37.9579C181.68 38.6172 181.291 39.2171 180.791 39.7201C180.287 40.2191 179.683 40.608 179.018 40.862C178.265 41.132 177.468 41.2587 176.668 41.2356L173.449 41.2356L173.449 30.183L176.668 30.183C177.466 30.1719 178.259 30.313 179.004 30.5989C179.67 30.8616 180.274 31.2588 180.777 31.7655C181.274 32.2705 181.663 32.8698 181.922 33.5277C182.201 34.2347 182.339 34.9887 182.33 35.7481L182.344 35.741Z" fill="#00D0FF"></path>
    <path fill-rule="evenodd" clip-rule="evenodd" d="M59.7402 0L61.4491 5.15959e-09L61.4491 68L59.7402 68L59.7402 0Z" fill="#00D0FF"></path>
    <path fill-rule="evenodd" clip-rule="evenodd" d="M2.81506 27.9979C2.82067 26.2433 3.52434 24.5621 4.77246 23.3214C6.02058 22.0806 7.71178 21.3811 9.47688 21.3756L17.4009 21.3756L17.4009 13.502C17.3804 12.6197 17.5375 11.7423 17.863 10.9212C18.1885 10.1002 18.6758 9.35206 19.2963 8.72087C19.9168 8.08967 20.6579 7.58813 21.4761 7.24571C22.2943 6.90329 23.1732 6.72689 24.0609 6.72689C24.9487 6.72689 25.8275 6.90329 26.6458 7.24571C27.464 7.58813 28.2051 8.08967 28.8256 8.72087C29.4461 9.35206 29.9333 10.1002 30.2588 10.9212C30.5843 11.7423 30.7415 12.6197 30.721 13.502L30.721 21.3756L38.645 21.3756C39.5198 21.3756 40.3861 21.5469 41.1944 21.8797C42.0026 22.2125 42.737 22.7003 43.3556 23.3152C43.9742 23.9302 44.4649 24.6602 44.7997 25.4637C45.1345 26.2671 45.3068 27.1283 45.3068 27.9979C45.3068 28.8676 45.1345 29.7287 44.7997 30.5322C44.4649 31.3357 43.9742 32.0657 43.3556 32.6807C42.737 33.2956 42.0026 33.7834 41.1944 34.1162C40.3861 34.449 39.5198 34.6203 38.645 34.6203L36.1136 34.6203L36.1136 37.4187L38.645 37.4187C41.1584 37.4187 43.5689 36.4261 45.3461 34.6594C47.1234 32.8927 48.1219 30.4965 48.1219 27.9979C48.1219 25.4994 47.1234 23.1032 45.3461 21.3365C43.5689 19.5697 41.1584 18.5772 38.645 18.5772L33.5396 18.5772L33.5396 13.502C33.564 12.2493 33.3368 11.0043 32.8714 9.83993C32.406 8.67552 31.7117 7.61506 30.8291 6.72056C29.9465 5.82607 28.8934 5.1155 27.7312 4.63043C26.5691 4.14535 25.3213 3.89551 24.0609 3.89551C22.8005 3.89551 21.5528 4.14535 20.3906 4.63043C19.2285 5.1155 18.1753 5.82607 17.2928 6.72056C16.4102 7.61506 15.7159 8.67552 15.2505 9.83993C14.7851 11.0043 14.5579 12.2493 14.5823 13.502L14.5823 18.5772L9.47688 18.5772C6.96346 18.5772 4.55298 19.5697 2.77572 21.3365C0.998455 23.1032 -6.52278e-08 25.4994 -7.27715e-08 27.9979C-8.03153e-08 30.4965 0.998454 32.8927 2.77572 34.6594C4.55298 36.4261 6.96346 37.4187 9.47688 37.4187L12.0083 37.4187L12.0083 34.6203L9.47688 34.6203C7.71178 34.6147 6.02058 33.9152 4.77246 32.6745C3.52434 31.4338 2.82067 29.7526 2.81506 27.9979Z" fill="#002B60"></path>
    <path fill-rule="evenodd" clip-rule="evenodd" d="M39.074 53.6204C39.0747 53.3599 39.153 53.1054 39.2992 52.8891C39.4453 52.6728 39.6526 52.5044 39.895 52.4051C40.1373 52.3059 40.4038 52.2803 40.6608 52.3316C40.9178 52.3828 41.1537 52.5086 41.3388 52.6931C41.5239 52.8776 41.6498 53.1125 41.7007 53.3681C41.7516 53.6237 41.7251 53.8885 41.6247 54.1292C41.5242 54.3698 41.3542 54.5755 41.1363 54.7202C40.9183 54.8649 40.6621 54.9421 40.4 54.9421C40.2255 54.9421 40.0528 54.9079 39.8917 54.8414C39.7306 54.7749 39.5843 54.6775 39.4611 54.5548C39.3379 54.432 39.2403 54.2863 39.1739 54.1259C39.1075 53.9656 39.0735 53.7938 39.074 53.6204ZM17.4009 34.6203L19.5281 34.6203L19.5281 31.8008L14.5823 31.8008L14.5823 42.4762C14.5878 44.742 15.4116 46.9305 16.9036 48.6433C18.3957 50.3562 20.4568 51.4795 22.7119 51.8089L22.7119 55.7033C22.7119 60.2851 27.7677 63.9082 32.1569 63.9082C34.2751 63.9082 36.3351 63.2193 38.0226 61.9466C39.71 60.6739 40.9322 58.8872 41.5026 56.8594C42.2476 56.6089 42.8842 56.1128 43.3068 55.4535C43.7294 54.7941 43.9127 54.0109 43.8262 53.2338C43.7398 52.4567 43.3888 51.7323 42.8314 51.1807C42.274 50.629 41.5438 50.2833 40.7617 50.2007C39.9796 50.1182 39.1926 50.3038 38.5311 50.7268C37.8696 51.1498 37.3735 51.7848 37.1248 52.5265C36.8761 53.2682 36.8898 54.0722 37.1637 54.8051C37.4376 55.538 37.9553 56.1558 38.6308 56.5562C38.1266 57.8899 37.2252 59.039 36.0469 59.8501C34.8687 60.6612 33.4695 61.0957 32.0363 61.0957C29.1291 61.0957 25.41 58.8683 25.41 55.6787L25.41 51.8089C27.662 51.48 29.7208 50.3592 31.2125 48.65C32.7042 46.9408 33.5298 44.7566 33.5396 42.4938L33.5396 31.8184L28.5937 31.8184L28.5937 34.6379L30.721 34.6379L30.721 42.5115C30.7415 43.3938 30.5843 44.2712 30.2588 45.0923C29.9333 45.9133 29.446 46.6614 28.8256 47.2926C28.2051 47.9238 27.464 48.4254 26.6458 48.7678C25.8275 49.1102 24.9487 49.2866 24.0609 49.2866C23.1732 49.2866 22.2943 49.1102 21.4761 48.7678C20.6579 48.4254 19.9168 47.9238 19.2963 47.2926C18.6758 46.6614 18.1885 45.9133 17.863 45.0923C17.5375 44.2712 17.3804 43.3938 17.4009 42.5115L17.4009 34.6203Z" fill="#00D0FF"></path>
    <path fill-rule="evenodd" clip-rule="evenodd" d="M20.45 22.7678L23.4175 22.7678L23.4175 25.7283L20.45 25.7283L20.45 22.7678ZM23.4175 26.9971L23.4175 29.9576L20.45 29.9576L20.45 26.9971L23.4175 26.9971ZM24.7044 22.7678L27.6755 22.7678L27.6755 25.7283L24.7044 25.7283L24.7044 22.7678ZM27.6755 26.9971L27.6755 29.9576L24.7044 29.9576L24.7044 26.9971L27.6755 26.9971Z" fill="#00D0FF"></path>
  </g>
  <defs>
    <clipPath id="clip0_53_143">
      <rect width="201" height="68" fill="white"></rect>
    </clipPath>
  </defs>
</svg>
